<svg width="307" height="47" viewBox="0 0 307 47" fill="none" xmlns="http://www.w3.org/2000/svg">
<path d="M13.8 37H0.36V2.536H13.8C24.696 2.536 31.56 9.544 31.56 19.576C31.56 29.608 24.456 37 13.8 37ZM9.432 10.36V29.176H13.272C19.272 29.176 22.248 26.056 22.248 19.576C22.248 13.48 19.176 10.36 13.272 10.36H9.432ZM47.4503 37.48C39.8183 37.48 33.9623 31.48 33.9623 24.088C33.9623 16.696 39.8183 10.696 47.4503 10.696C55.0823 10.696 60.9383 16.696 60.9383 24.088C60.9383 31.48 55.0823 37.48 47.4503 37.48ZM47.4503 30.136C49.9943 30.136 52.3943 28.12 52.3943 24.088C52.3943 20.056 49.9943 18.088 47.4503 18.088C44.9062 18.088 42.5063 20.056 42.5063 24.088C42.5063 28.12 44.9062 30.136 47.4503 30.136ZM76.0796 37.48C68.3996 37.48 63.0716 31.96 63.0716 24.088C63.0716 16.408 68.6396 10.696 76.0796 10.696C83.1836 10.696 88.4636 15.496 89.1836 22.696H80.4476C80.3036 19.864 78.6236 18.088 76.1276 18.088C73.2476 18.088 71.5676 20.296 71.5676 24.088C71.5676 27.976 73.1996 30.136 76.1276 30.136C78.6716 30.136 80.2556 28.408 80.4476 25.48H89.1836C88.4636 32.872 83.4236 37.48 76.0796 37.48ZM110.25 28.936V36.088C108.426 37.096 106.698 37.48 104.394 37.48C98.5864 37.48 95.1784 34.024 95.1784 28.12V18.328H90.3784V11.176H95.1784V3.592H103.386V11.176H110.442V18.328H103.386V26.2C103.386 28.696 104.442 29.848 106.698 29.848C108.042 29.848 109.338 29.512 110.25 28.936ZM129.23 37V34.504C127.406 36.568 125.15 37.48 121.838 37.48C116.462 37.48 112.862 34.264 112.862 29.368C112.862 24.328 116.942 21.592 124.334 21.592C125.726 21.592 127.022 21.688 128.126 21.88V20.632C128.126 18.376 126.83 17.128 124.526 17.128C122.27 17.128 120.926 18.376 120.638 20.632H113.246C113.726 14.632 118.19 10.696 124.574 10.696C131.678 10.696 135.854 14.536 135.854 21.064V37H129.23ZM120.59 29.128C120.59 30.808 121.742 31.816 123.758 31.816C126.494 31.816 128.126 30.52 128.126 28.408V26.776C126.878 26.536 125.918 26.44 124.862 26.44C122.078 26.44 120.59 27.352 120.59 29.128Z" fill="#005FCC"/>
<path d="M157.145 37.72C147.353 37.72 139.625 29.848 139.625 19.72C139.625 9.64 147.353 1.816 157.145 1.816C166.601 1.816 173.897 8.104 175.001 17.224H165.401C164.681 12.904 161.465 9.928 157.241 9.928C152.153 9.928 148.937 13.864 148.937 19.72C148.937 25.624 152.153 29.608 157.241 29.608C161.417 29.608 164.633 26.632 165.401 22.264H175.001C173.849 31.48 166.601 37.72 157.145 37.72ZM194.152 37V34.504C192.328 36.568 190.072 37.48 186.76 37.48C181.384 37.48 177.784 34.264 177.784 29.368C177.784 24.328 181.864 21.592 189.256 21.592C190.648 21.592 191.944 21.688 193.048 21.88V20.632C193.048 18.376 191.752 17.128 189.448 17.128C187.192 17.128 185.848 18.376 185.56 20.632H178.168C178.648 14.632 183.112 10.696 189.496 10.696C196.6 10.696 200.776 14.536 200.776 21.064V37H194.152ZM185.512 29.128C185.512 30.808 186.664 31.816 188.68 31.816C191.416 31.816 193.048 30.52 193.048 28.408V26.776C191.8 26.536 190.84 26.44 189.784 26.44C187 26.44 185.512 27.352 185.512 29.128ZM232.627 24.088C232.627 31.576 228.067 37.48 221.107 37.48C218.419 37.48 216.115 36.52 214.099 34.6V46.264H205.891V11.176H213.427V14.104C215.539 11.896 218.083 10.696 221.107 10.696C228.067 10.696 232.627 16.696 232.627 24.088ZM224.083 24.088C224.083 20.056 221.635 18.088 219.139 18.088C216.595 18.088 214.195 20.056 214.195 24.136C214.195 28.264 216.643 30.088 219.139 30.088C221.635 30.088 224.083 28.216 224.083 24.088ZM245.672 5.176C245.672 7.864 243.512 9.832 240.392 9.832C237.272 9.832 235.112 7.864 235.112 5.176C235.112 2.44 237.272 0.471998 240.392 0.471998C243.512 0.471998 245.672 2.44 245.672 5.176ZM244.568 37H236.36V11.176H244.568V37ZM267.282 28.936V36.088C265.458 37.096 263.73 37.48 261.426 37.48C255.618 37.48 252.21 34.024 252.21 28.12V18.328H247.41V11.176H252.21V3.592H260.418V11.176H267.474V18.328H260.418V26.2C260.418 28.696 261.474 29.848 263.73 29.848C265.074 29.848 266.37 29.512 267.282 28.936ZM286.261 37V34.504C284.437 36.568 282.181 37.48 278.869 37.48C273.493 37.48 269.893 34.264 269.893 29.368C269.893 24.328 273.973 21.592 281.365 21.592C282.757 21.592 284.053 21.688 285.157 21.88V20.632C285.157 18.376 283.861 17.128 281.557 17.128C279.301 17.128 277.957 18.376 277.669 20.632H270.277C270.757 14.632 275.221 10.696 281.605 10.696C288.709 10.696 292.885 14.536 292.885 21.064V37H286.261ZM277.621 29.128C277.621 30.808 278.773 31.816 280.789 31.816C283.525 31.816 285.157 30.52 285.157 28.408V26.776C283.909 26.536 282.949 26.44 281.893 26.44C279.109 26.44 277.621 27.352 277.621 29.128ZM306.305 37H298.001V2.536H306.305V37Z" fill="#000529"/>
</svg>
